# xmcd
#
# Track frame offsets:
# 150
# 11491
# 20860
# 32495
# 40904
# 51680
# 63223
# 74535
# 84287
# 95172
# 106213
# 118431
#
# Disc length: 1738 seconds
#
#
# Revision: 0
# Processed by: cddbd v1.4PL0 Copyright (c) Steve Scherf et al.
# Submitted via: FreeRIP 2.00 
#
DISCID=a806c80c
DTITLE=Jim Reeves - Jim Reeves
DYEAR=1957
DGENRE=Country
TTITLE0=Teardrops In My Heart (1957)
TTITLE1=I Get The Blues When It Rains (1957)
TTITLE2=You Belong To Me 1957)
TTITLE3=Everywhere You Go (1957)
TTITLE4=Need Me (1957)
TTITLE5=I Care No More (1957)
TTITLE6=My Happiness (1957)
TTITLE7=Yours (1957)
TTITLE8=That's My Desire (1957)
TTITLE9=Blues In My Heart (1957)
TTITLE10=I Don't See Me In Tour Eyes Anymore (1957)
TTITLE11=Final Affair (1957)
EXTD=RCA Victor LPM 1576
EXTT0=
EXTT1=
EXTT2=
EXTT3=
EXTT4=
EXTT5=
EXTT6=
EXTT7=
EXTT8=
EXTT9=
EXTT10=
EXTT11=
PLAYORDER=
